<svg width="24" height="24" viewBox="0 0 24 24" fill="none" xmlns="http://www.w3.org/2000/svg">
<path d="M12 2C9.87898 2.00244 7.8455 2.88527 6.34572 4.45481C4.84593 6.02435 4.00233 8.1524 4 10.3721C4 14.7942 10.72 20.8647 11.4832 21.5429L12 22L12.5168 21.5429C13.28 20.8647 20 14.7942 20 10.3721C19.9977 8.1524 19.1541 6.02435 17.6543 4.45481C16.1545 2.88527 14.121 2.00244 12 2V2ZM12 14.5581C11.2089 14.5581 10.4355 14.3126 9.77772 13.8526C9.11992 13.3926 8.60723 12.7389 8.30448 11.974C8.00173 11.2091 7.92252 10.3674 8.07686 9.5554C8.2312 8.74339 8.61216 7.99751 9.17157 7.41209C9.73098 6.82666 10.4437 6.42798 11.2196 6.26646C11.9956 6.10494 12.7998 6.18784 13.5307 6.50467C14.2616 6.8215 14.8864 7.35803 15.3259 8.04642C15.7654 8.73481 16 9.54414 16 10.3721C15.9987 11.4818 15.5769 12.5458 14.827 13.3306C14.0772 14.1153 13.0605 14.5568 12 14.5581Z" fill="#6D737A"/>
<path d="M12 13C13.6569 13 15 11.6569 15 10C15 8.34315 13.6569 7 12 7C10.3431 7 9 8.34315 9 10C9 11.6569 10.3431 13 12 13Z" fill="#6D737A"/>
</svg>
