<svg width="32" height="40" viewBox="0 0 32 40" fill="none" xmlns="http://www.w3.org/2000/svg">
<path d="M10.3636 11C8.90722 11 7.48354 11.4319 6.2726 12.241C5.06167 13.0501 4.11786 14.2001 3.56052 15.5457C3.00319 16.8912 2.85737 18.3718 3.14149 19.8002C3.42562 21.2286 4.12693 22.5406 5.15675 23.5704C6.18657 24.6003 7.49863 25.3016 8.92703 25.5857C10.3554 25.8698 11.836 25.724 13.1815 25.1667C14.527 24.6093 15.6771 23.6655 16.4862 22.4546C17.2953 21.2437 17.7272 19.82 17.7272 18.3636C17.7271 16.4107 16.9512 14.5378 15.5703 13.1569C14.1894 11.776 12.3165 11.0001 10.3636 11Z" stroke="#A4A4A4" stroke-miterlimit="10"/>
<path d="M15.8574 23.8574L21.0001 29.0001" stroke="#A4A4A4" stroke-miterlimit="10" stroke-linecap="round"/>
</svg>
