<svg width="20" height="20" viewBox="0 0 20 20" fill="none" xmlns="http://www.w3.org/2000/svg">
<g clip-path="url(#clip0_1650_298)">
<path fill-rule="evenodd" clip-rule="evenodd" d="M10 20C15.5228 20 20 15.5228 20 10C20 4.47715 15.5228 0 10 0C4.47715 0 0 4.47715 0 10C0 15.5228 4.47715 20 10 20ZM10 5C10.4255 5 10.7692 5.34375 10.7692 5.76923V9.23077H14.2308C14.6562 9.23077 15 9.57452 15 10C15 10.4255 14.6562 10.7692 14.2308 10.7692H10.7692V14.2308C10.7692 14.6562 10.4255 15 10 15C9.57452 15 9.23077 14.6562 9.23077 14.2308V10.7692H5.76923C5.34375 10.7692 5 10.4255 5 10C5 9.57452 5.34375 9.23077 5.76923 9.23077H9.23077V5.76923C9.23077 5.34375 9.57452 5 10 5Z" fill="#6D737A"/>
</g>
<defs>
<clipPath id="clip0_1650_298">
<rect width="20" height="20" fill="white"/>
</clipPath>
</defs>
</svg>
