<svg width="20" height="20" viewBox="0 0 20 20" fill="none" xmlns="http://www.w3.org/2000/svg">
<path d="M4.015 17.5C3.59813 17.5 3.24156 17.3516 2.94531 17.0547C2.64906 16.7578 2.50062 16.4019 2.5 15.9869V4.01406C2.5 3.59781 2.64844 3.24156 2.94531 2.94531C3.24219 2.64906 3.59844 2.50062 4.01406 2.5H8.01719C8.43344 2.5 8.78969 2.64844 9.08594 2.94531C9.38219 3.24219 9.53062 3.59844 9.53125 4.01406V15.9859C9.53125 16.4022 9.38281 16.7584 9.08594 17.0547C8.78906 17.3509 8.43281 17.4994 8.01719 17.5H4.015ZM11.9838 17.5C11.5669 17.5 11.2103 17.3516 10.9141 17.0547C10.6178 16.7578 10.4694 16.4016 10.4688 15.9859V11.5141C10.4688 11.0978 10.6172 10.7416 10.9141 10.4453C11.2109 10.1491 11.5672 10.0006 11.9828 10H15.9859C16.4022 10 16.7584 10.1484 17.0547 10.4453C17.3509 10.7422 17.4994 11.0984 17.5 11.5141V15.9859C17.5 16.4022 17.3516 16.7584 17.0547 17.0547C16.7578 17.3509 16.4016 17.4994 15.9859 17.5H11.9838ZM11.9838 9.0625C11.5669 9.0625 11.2103 8.91406 10.9141 8.61719C10.6178 8.32031 10.4694 7.96406 10.4688 7.54844V4.01406C10.4688 3.59781 10.6172 3.24156 10.9141 2.94531C11.2109 2.64906 11.5672 2.50062 11.9828 2.5H15.9859C16.4022 2.5 16.7584 2.64844 17.0547 2.94531C17.3509 3.24219 17.4994 3.59844 17.5 4.01406V7.54844C17.5 7.96469 17.3516 8.32094 17.0547 8.61719C16.7578 8.91344 16.4016 9.06187 15.9859 9.0625H11.9838Z" fill="#6D737A"/>
</svg>
