<svg width="20" height="20" viewBox="0 0 20 20" fill="none" xmlns="http://www.w3.org/2000/svg">
<path d="M8.91699 1.71055C7.03852 1.97804 5.4031 2.78401 4.09755 4.09022C3.17046 5.01777 2.50033 6.10165 2.0906 7.33838C1.7781 8.27288 1.66699 8.97809 1.66699 9.99597C1.66699 11.0069 1.7781 11.7086 2.08366 12.6431C3.08019 15.6724 5.73644 17.861 8.93783 18.2814C9.47255 18.3509 10.5316 18.3509 11.0663 18.2814C13.9656 17.8992 16.4344 16.065 17.6219 13.4109C17.9552 12.664 18.1705 11.8893 18.2816 11.0625C18.351 10.524 18.351 9.46792 18.2816 8.92946C17.8024 5.28874 15.0489 2.40882 11.4239 1.76266C10.8684 1.66191 9.45519 1.63412 8.91699 1.71055ZM10.2781 5.10809C10.3441 5.14978 10.4274 5.2401 10.4656 5.30611C10.5385 5.42422 10.5385 5.47286 10.5385 7.49471C10.5385 9.51656 10.5385 9.5652 10.4656 9.68331C10.2469 10.055 9.7538 10.055 9.53505 9.68331C9.46213 9.5652 9.46213 9.51656 9.46213 7.49471C9.46213 5.47286 9.46213 5.42422 9.53505 5.30611C9.63921 5.12893 9.80588 5.02819 10.0003 5.02819C10.1114 5.02819 10.2017 5.05251 10.2781 5.10809ZM7.56283 6.05996C7.70519 6.16765 7.78852 6.3344 7.78505 6.51157C7.78505 6.69222 7.69477 6.8416 7.49338 6.99098C7.15658 7.24111 6.67046 7.87685 6.46213 8.33194C6.20866 8.88777 6.10796 9.37413 6.11144 10.0133C6.11491 11.8129 7.28158 13.3206 9.0281 13.7826C9.4656 13.8972 10.3094 13.9181 10.7642 13.8243C12.3475 13.4977 13.5385 12.2923 13.8371 10.7186C13.91 10.3225 13.9066 9.60688 13.8232 9.21432C13.6462 8.3771 13.2017 7.59545 12.5975 7.07436C12.358 6.86245 12.292 6.75128 12.292 6.54979C12.292 6.26145 12.5212 6.03564 12.8128 6.03564C13.0073 6.03564 13.1149 6.09817 13.4378 6.40388C14.1184 7.05004 14.5837 7.85253 14.8337 8.81482C14.9239 9.15874 14.9413 9.2977 14.9552 9.80837C14.983 10.7255 14.858 11.3543 14.4969 12.1047C14.2364 12.6501 13.9344 13.0774 13.5073 13.5047C12.5524 14.46 11.3371 14.9672 10.0003 14.9672C8.79199 14.9672 7.66699 14.5469 6.74685 13.7548C5.86144 12.9871 5.26769 11.9136 5.08019 10.7463C5.04199 10.4858 5.03158 10.2496 5.04546 9.80837C5.05935 9.2977 5.07671 9.15874 5.16699 8.81482C5.35449 8.08181 5.66699 7.44955 6.10449 6.90066C6.34755 6.59842 6.84408 6.12249 7.02116 6.02522C7.16699 5.94532 7.43088 5.96269 7.56283 6.05996Z" fill="#6D737A"/>
</svg>
