<svg width="20" height="20" viewBox="0 0 20 20" fill="none" xmlns="http://www.w3.org/2000/svg">
<path d="M7.3242 1.67366C6.98371 1.7328 6.01087 2.2025 5.41675 2.59217C4.86084 2.95748 4.57247 3.24277 4.49603 3.49676C4.41612 3.76118 4.42654 3.97341 4.5273 4.28653C4.86084 5.2955 4.5273 6.28359 3.6726 6.83679C3.40159 7.01075 3.15838 7.1012 2.78315 7.16731C1.91455 7.32039 1.70608 7.7379 1.67134 9.41139C1.63312 11.1893 1.83464 11.6311 2.76925 11.7912C3.4954 11.9164 4.06868 12.3339 4.38832 12.9671C4.65933 13.5099 4.68365 14.0631 4.45781 14.7137C4.29799 15.1834 4.29799 15.4408 4.46129 15.7435C4.68712 16.1645 5.93096 16.9786 6.94549 17.3788C7.50834 17.6014 7.99128 17.5144 8.29008 17.1422C8.58193 16.7734 8.88073 16.5159 9.17606 16.3733C9.5374 16.2028 9.73196 16.1576 10.1072 16.1576C10.7639 16.1576 11.3788 16.4498 11.7888 16.9578C11.9938 17.2187 12.1675 17.3335 12.4524 17.4031C12.6574 17.4553 12.6922 17.4553 12.9076 17.3996C13.5225 17.25 14.822 16.4846 15.3362 15.9732C15.6871 15.6218 15.7462 15.2947 15.562 14.7172C15.364 14.1013 15.3918 13.6003 15.6593 13.0506C15.965 12.4244 16.5314 12.0069 17.268 11.8677C17.5876 11.8051 17.7544 11.7251 17.9281 11.5441C18.206 11.2554 18.3033 10.81 18.3276 9.68973C18.3415 9.05303 18.3346 8.86864 18.2721 8.45809C18.1956 7.93273 18.1227 7.73442 17.9316 7.54654C17.7717 7.38302 17.5945 7.29952 17.2714 7.23689C17.122 7.20558 16.8684 7.11512 16.7051 7.03858C16.1805 6.7846 15.7496 6.26968 15.5724 5.67125C15.4752 5.34421 15.4891 4.81189 15.6072 4.43962C15.7531 3.97341 15.7184 3.61505 15.503 3.32975C15.3084 3.07925 14.5197 2.51562 13.8908 2.18162C13.7102 2.0842 13.3801 1.93112 13.1612 1.84066C12.8172 1.70149 12.7269 1.67714 12.5184 1.67714C12.164 1.67714 12.0007 1.76064 11.5838 2.1677C11.0522 2.68262 10.6214 2.87398 9.99949 2.87398C9.3741 2.87398 8.94327 2.68262 8.41864 2.17118C8.2067 1.96243 8.00518 1.80239 7.91137 1.76064C7.75155 1.69105 7.47012 1.6493 7.3242 1.67366ZM10.677 6.90637C10.7743 6.93072 11.0071 7.02466 11.1982 7.11512C11.7923 7.40389 12.1745 7.78661 12.4663 8.38503C12.6713 8.81297 12.7443 9.12262 12.7443 9.59579C12.7443 10.6639 12.1397 11.6137 11.1634 12.0765C10.7639 12.2643 10.4442 12.3339 9.98907 12.3339C8.94327 12.3339 8.00866 11.7529 7.54656 10.8205C7.3381 10.396 7.25471 10.0481 7.25471 9.59579C7.25471 9.12262 7.32767 8.81297 7.53266 8.38503C7.82451 7.78661 8.2067 7.40389 8.80082 7.11512C8.99191 7.02466 9.22817 6.93072 9.32198 6.90637C9.71806 6.80895 10.274 6.80895 10.677 6.90637Z" fill="#6D737A"/>
</svg>
