<svg width="20" height="20" viewBox="0 0 20 20" fill="none" xmlns="http://www.w3.org/2000/svg">
<g clip-path="url(#clip0_1650_294)">
<path d="M10.7542 5.6244C10.7542 6.58565 10.3723 7.50753 9.69264 8.18724C9.01294 8.86695 8.09105 9.2488 7.1298 9.2488C6.16855 9.2488 5.24667 8.86695 4.56697 8.18724C3.88726 7.50753 3.5054 6.58565 3.5054 5.6244C3.5054 4.66315 3.88726 3.74127 4.56697 3.06156C5.24667 2.38186 6.16855 2 7.1298 2C8.09105 2 9.01294 2.38186 9.69264 3.06156C10.3723 3.74127 10.7542 4.66315 10.7542 5.6244ZM14.2336 16.5063C14.3931 17.2921 13.7291 17.9474 12.9288 17.9474H1.33076C0.529045 17.9474 -0.133495 17.2921 0.0230789 16.5063C0.356596 14.8677 1.24615 13.3947 2.54112 12.3368C3.83609 11.2789 5.4569 10.701 7.12908 10.701C8.80126 10.701 10.4221 11.2789 11.717 12.3368C13.012 13.3947 13.9016 14.8677 14.2351 16.5063M18.7308 16.4976H16.4257C16.4132 16.3566 16.3938 16.2163 16.3677 16.0772C16.0901 14.7095 15.5122 13.4206 14.6758 12.3034C15.7414 12.0094 16.879 12.1322 17.8573 12.6468C18.8357 13.1614 19.5813 14.0293 19.9428 15.0739C20.2037 15.8307 19.5325 16.4976 18.7308 16.4976ZM15.8284 10.6986C16.5974 10.6986 17.3349 10.3931 17.8786 9.84931C18.4224 9.30555 18.7279 8.56804 18.7279 7.79904C18.7279 7.03004 18.4224 6.29254 17.8786 5.74877C17.3349 5.205 16.5974 4.89952 15.8284 4.89952C15.0594 4.89952 14.3219 5.205 13.7781 5.74877C13.2343 6.29254 12.9288 7.03004 12.9288 7.79904C12.9288 8.56804 13.2343 9.30555 13.7781 9.84931C14.3219 10.3931 15.0594 10.6986 15.8284 10.6986Z" fill="#6D737A"/>
</g>
<defs>
<clipPath id="clip0_1650_294">
<rect width="20" height="20" fill="white"/>
</clipPath>
</defs>
</svg>
