<svg width="17" height="19" viewBox="0 0 17 19" fill="none" xmlns="http://www.w3.org/2000/svg">
<path d="M7.55758 0.669551C6.28008 0.818099 5.12918 1.35756 4.23148 2.2254C3.34528 3.08541 2.81587 4.04316 2.52814 5.30191C2.47827 5.52082 2.46293 5.94301 2.43607 7.47149C2.40154 9.53944 2.38236 9.76617 2.15986 10.4815C1.88364 11.3767 1.46548 12.0569 0.721231 12.827C0.057545 13.5111 0 13.6206 0 14.2148C0 14.6331 0.00383633 14.6526 0.138108 14.8989C0.299234 15.1999 0.563941 15.4345 0.890029 15.5674L1.11254 15.6612L8.07548 15.6729C13.0244 15.6807 15.0883 15.669 15.2072 15.6416C15.6522 15.5283 16.0819 15.1804 16.2584 14.7934C16.3274 14.6409 16.3428 14.5353 16.3428 14.2148C16.3428 13.8512 16.3351 13.8043 16.2162 13.5581C16.1203 13.3587 16.0167 13.2297 15.7827 13.0147C14.8313 12.1273 14.2136 10.9976 14.0026 9.76226C13.9719 9.57071 13.9451 9.33225 13.9451 9.23062C13.9451 9.12898 13.9221 9.02734 13.899 9.00779C13.8722 8.98434 13.6765 8.95697 13.4655 8.94525C13.009 8.92179 12.5947 8.83579 12.1228 8.67942C9.87089 7.91323 8.31333 5.83355 8.20208 3.44506C8.16372 2.58504 8.29415 1.79148 8.59722 1.02528C8.66628 0.845464 8.71999 0.685187 8.70848 0.677369C8.67779 0.642187 7.82612 0.634369 7.55758 0.669551Z" fill="#A4A4A4"/>
<path d="M5.18255 16.7048C5.47027 17.7172 6.20685 18.5108 7.18511 18.8587C7.47667 18.9603 7.58409 18.9799 8.03678 18.9955C8.47028 19.0073 8.60839 18.9994 8.88844 18.9291C9.88973 18.6867 10.7145 17.9361 11.0636 16.9471C11.1289 16.7634 11.1826 16.5875 11.1826 16.5562C11.1826 16.5093 10.7721 16.5015 8.1557 16.5015H5.125L5.18255 16.7048Z" fill="#A4A4A4"/>
</svg>
