<svg width="56" height="56" viewBox="0 0 56 56" fill="none" xmlns="http://www.w3.org/2000/svg">
<rect width="56" height="56" rx="8" fill="#F2F3FF"/>
<path d="M27.9677 10C26.7871 10.0238 25.9394 10.2535 25.3769 10.6655L17.6678 14.7934L13.3815 20.6239C12.4783 22.0184 13.12 24.7122 15.9406 22.985L19.0306 18.9126C22.9524 15.5302 30.9546 17.0823 27.1595 23.8723C25.2976 27.8021 26.1692 29.7195 28.5698 30.5276L29.6632 26.8514C31.5568 22.5888 35.0904 21.8203 34.9478 18.3817L43.4412 18.9918L43.362 10.1109L27.9677 10ZM23.6813 18.1916C22.3027 18.1678 20.9479 18.7383 19.9655 19.5622L16.8676 23.6347C17.7153 24.3081 18.571 23.9436 19.4188 23.1276C20.4171 23.6347 21.1935 22.8503 21.8274 21.2815C22.0888 20.2119 22.477 19.4592 23.6813 18.1916ZM17.3746 25.7976C17.343 25.7976 17.3033 25.7976 17.2717 25.8055C17.0102 25.861 16.7012 26.1383 16.4952 26.7721C16.2813 27.406 16.2337 28.3092 16.4239 29.2758C16.614 30.2345 17.0102 31.0506 17.4539 31.5576C17.8817 32.0568 18.2779 32.1994 18.5393 32.1439C18.8087 32.0964 19.1098 31.8112 19.3158 31.1852C19.5297 30.5514 19.5852 29.6403 19.395 28.6816C19.1969 27.715 18.8008 26.8989 18.365 26.3998C17.9847 25.9561 17.6361 25.7976 17.3746 25.7976ZM23.919 34.2594C23.2931 34.2673 22.5087 34.4654 21.7402 34.8377C20.8608 35.2735 20.1715 35.8756 19.7991 36.4303C19.4267 36.9769 19.395 37.3889 19.5139 37.6346C19.6327 37.8722 19.9813 38.102 20.6468 38.1337C21.3124 38.1733 22.2077 37.9911 23.0871 37.5553C23.9666 37.1196 24.6559 36.5253 25.0282 35.9707C25.4006 35.424 25.4323 35.0041 25.3135 34.7664C25.1946 34.5208 24.846 34.299 24.1805 34.2673C24.0933 34.2594 24.0141 34.2594 23.919 34.2594ZM16.1862 41.8337C15.8138 41.8417 15.4731 41.8971 15.1721 41.9843C14.4986 42.1823 14.1104 42.5389 13.9836 42.9588C13.8489 43.3866 13.9836 43.8937 14.4352 44.4404C14.8948 44.9791 15.6633 45.4941 16.614 45.7794C17.5569 46.0646 18.4759 46.0567 19.1573 45.8507C19.8387 45.6526 20.2269 45.2961 20.3537 44.8762C20.4805 44.4483 20.3537 43.9412 19.8942 43.3946C19.4425 42.8558 18.674 42.3408 17.7233 42.0556C17.1845 41.8971 16.6616 41.8258 16.1862 41.8337Z" fill="#8489FF"/>
</svg>
