<svg width="56" height="56" viewBox="0 0 56 56" fill="none" xmlns="http://www.w3.org/2000/svg">
<rect width="56" height="56" rx="8" fill="#F2F3FF"/>
<path fill-rule="evenodd" clip-rule="evenodd" d="M28.1661 10C23.6488 10 19.5334 11.4921 17.0982 12.7112C16.8782 12.8212 16.6729 12.9286 16.4822 13.0333C16.1041 13.2393 15.7821 13.4313 15.5261 13.6003L18.2963 17.6786L19.6004 18.1977C24.6969 20.7689 31.5314 20.7689 36.6289 18.1977L38.109 17.4296L40.7282 13.6003C40.185 13.2474 39.621 12.9278 39.0391 12.6432C36.6158 11.4371 32.5985 10 28.1671 10M21.7246 14.6164C20.7439 14.4318 19.7751 14.1887 18.8234 13.8883C21.1046 12.8752 24.5038 11.8002 28.1671 11.8002C30.7044 11.8002 33.1036 12.3162 35.0877 12.9702C32.7625 13.2973 30.2813 13.8523 27.9171 14.5354C26.057 15.0734 23.8828 15.0154 21.7246 14.6164ZM37.6859 19.6808L37.4399 19.8048C31.8335 22.6331 24.3968 22.6331 18.7904 19.8048L18.5573 19.6868C10.1336 28.9286 3.70311 46 28.1661 46C52.6292 46 46.0426 28.6116 37.6859 19.6808ZM27.1271 28.0015C26.5966 28.0015 26.0878 28.2122 25.7127 28.5873C25.3376 28.9624 25.1269 29.4712 25.1269 30.0017C25.1269 30.5321 25.3376 31.0409 25.7127 31.416C26.0878 31.7911 26.5966 32.0018 27.1271 32.0018V28.0015ZM29.1272 26.0013V25.0013H27.1271V26.0013C26.0661 26.0013 25.0486 26.4228 24.2984 27.173C23.5482 27.9232 23.1267 28.9407 23.1267 30.0017C23.1267 31.0626 23.5482 32.0801 24.2984 32.8303C25.0486 33.5805 26.0661 34.002 27.1271 34.002V38.0023C26.257 38.0023 25.5159 37.4473 25.2399 36.6692C25.199 36.5419 25.1329 36.4241 25.0456 36.3228C24.9583 36.2215 24.8516 36.1387 24.7318 36.0794C24.612 36.02 24.4815 35.9853 24.348 35.9772C24.2145 35.9692 24.0808 35.988 23.9547 36.0325C23.8286 36.0771 23.7128 36.1465 23.614 36.2366C23.5152 36.3267 23.4354 36.4357 23.3795 36.5572C23.3236 36.6786 23.2925 36.8101 23.2883 36.9437C23.284 37.0774 23.3066 37.2105 23.3547 37.3353C23.6305 38.1154 24.1413 38.7908 24.8169 39.2685C25.4925 39.7462 26.2996 40.0026 27.1271 40.0025V41.0026H29.1272V40.0025C30.1882 40.0025 31.2057 39.581 31.9559 38.8308C32.7061 38.0806 33.1276 37.0631 33.1276 36.0022C33.1276 34.9412 32.7061 33.9237 31.9559 33.1735C31.2057 32.4233 30.1882 32.0018 29.1272 32.0018V28.0015C29.9973 28.0015 30.7384 28.5565 31.0144 29.3346C31.0553 29.4619 31.1214 29.5797 31.2087 29.681C31.2959 29.7823 31.4026 29.8651 31.5225 29.9245C31.6423 29.9838 31.7728 30.0186 31.9063 30.0266C32.0398 30.0346 32.1735 30.0158 32.2996 29.9713C32.4257 29.9267 32.5415 29.8574 32.6403 29.7673C32.7391 29.6771 32.8189 29.5681 32.8748 29.4467C32.9307 29.3252 32.9617 29.1938 32.966 29.0601C32.9702 28.9265 32.9476 28.7933 32.8995 28.6686C32.6238 27.8884 32.1129 27.213 31.4373 26.7353C30.7617 26.2576 29.9546 26.0012 29.1272 26.0013ZM29.1272 34.002V38.0023C29.6577 38.0023 30.1665 37.7916 30.5416 37.4165C30.9167 37.0414 31.1274 36.5326 31.1274 36.0022C31.1274 35.4717 30.9167 34.9629 30.5416 34.5878C30.1665 34.2127 29.6577 34.002 29.1272 34.002Z" fill="#8489FF"/>
</svg>
