<svg width="56" height="56" viewBox="0 0 56 56" fill="none" xmlns="http://www.w3.org/2000/svg">
<rect width="56" height="56" rx="8" fill="#F2F3FF"/>
<path d="M18.9064 18.4506C19.4152 17.9417 20.1053 17.6559 20.825 17.6559C21.5446 17.6559 22.2347 17.9417 22.7436 18.4506C23.2524 18.9594 23.5383 19.6496 23.5383 20.3692C23.5383 21.0888 23.2524 21.7789 22.7436 22.2878C22.2347 22.7966 21.5446 23.0825 20.825 23.0825C20.1053 23.0825 19.4152 22.7966 18.9064 22.2878C18.3975 21.7789 18.1116 21.0888 18.1116 20.3692C18.1116 19.6496 18.3975 18.9594 18.9064 18.4506ZM37.2865 36.8307C36.7777 37.3396 36.0875 37.6255 35.3679 37.6255C34.6483 37.6255 33.9582 37.3396 33.4493 36.8307C32.9405 36.3219 32.6546 35.6318 32.6546 34.9121C32.6546 34.1925 32.9405 33.5024 33.4493 32.9936C33.9582 32.4847 34.6483 32.1988 35.3679 32.1988C36.0875 32.1988 36.7777 32.4847 37.2865 32.9936C37.7954 33.5024 38.0812 34.1925 38.0812 34.9121C38.0812 35.6318 37.7954 36.3219 37.2865 36.8307ZM39.3778 20.1965L20.6523 38.922C20.1434 39.4309 19.4533 39.7167 18.7337 39.7167C18.0141 39.7167 17.3239 39.4309 16.8151 38.922C16.3062 38.4132 16.0204 37.723 16.0204 37.0034C16.0204 36.2838 16.3062 35.5937 16.8151 35.0848L35.5406 16.3593C36.0494 15.8505 36.7396 15.5646 37.4592 15.5646C38.1788 15.5646 38.869 15.8505 39.3778 16.3593C39.8866 16.8682 40.1725 17.5583 40.1725 18.2779C40.1725 18.9975 39.8866 19.6877 39.3778 20.1965Z" fill="#8489FF"/>
</svg>
