<svg width="57" height="56" viewBox="0 0 57 56" fill="none" xmlns="http://www.w3.org/2000/svg">
<rect x="0.400391" width="56" height="56" rx="8" fill="#F2F3FF"/>
<path d="M35.6004 37.4V41H10.4004V37.4C10.4004 37.4 10.4004 30.2 23.0004 30.2C35.6004 30.2 35.6004 37.4 35.6004 37.4ZM29.3004 20.3001C29.3004 19.054 28.9309 17.836 28.2386 16.8C27.5464 15.7639 26.5625 14.9565 25.4113 14.4796C24.2601 14.0028 22.9934 13.878 21.7713 14.1211C20.5492 14.3642 19.4267 14.9642 18.5456 15.8453C17.6645 16.7264 17.0645 17.8489 16.8214 19.071C16.5784 20.2931 16.7031 21.5598 17.1799 22.7109C17.6568 23.8621 18.4643 24.846 19.5003 25.5383C20.5363 26.2305 21.7544 26.6 23.0004 26.6C24.6713 26.6 26.2737 25.9363 27.4552 24.7548C28.6366 23.5733 29.3004 21.9709 29.3004 20.3001ZM35.4924 30.2C36.5989 31.0564 37.5044 32.1448 38.145 33.3887C38.7856 34.6327 39.1459 36.0019 39.2004 37.4V41H46.4004V37.4C46.4004 37.4 46.4004 30.866 35.4924 30.2ZM33.8004 14.0001C32.5616 13.9943 31.3502 14.3646 30.3264 15.0621C31.4198 16.5898 32.0077 18.4214 32.0077 20.3001C32.0077 22.1787 31.4198 24.0103 30.3264 25.538C31.3502 26.2355 32.5616 26.6058 33.8004 26.6C35.4713 26.6 37.0737 25.9363 38.2552 24.7548C39.4366 23.5733 40.1004 21.9709 40.1004 20.3001C40.1004 18.6292 39.4366 17.0268 38.2552 15.8453C37.0737 14.6638 35.4713 14.0001 33.8004 14.0001Z" fill="#8489FF"/>
</svg>
